<?xml version="1.0" standalone="no"?>
<!DOCTYPE svg PUBLIC "-//W3C//DTD SVG 20010904//EN"
 "http://www.w3.org/TR/2001/REC-SVG-20010904/DTD/svg10.dtd">
<svg version="1.0" xmlns="http://www.w3.org/2000/svg"
 width="1000.000000pt" height="1000.000000pt" viewBox="0 0 1000.000000 1000.000000"
 preserveAspectRatio="xMidYMid meet">
<metadata>
Created by potrace 1.14, written by Peter Selinger 2001-2017
</metadata>
<g transform="translate(0.000000,1000.000000) scale(0.100000,-0.100000)"
fill="#000000" stroke="none">
<path d="M4749 9966 c-2 -2 -55 -7 -117 -11 -63 -4 -124 -8 -135 -10 -12 -2
-49 -6 -82 -10 -33 -3 -85 -10 -115 -15 -30 -5 -75 -12 -100 -15 -25 -4 -110
-20 -189 -36 -731 -148 -1427 -464 -2021 -917 -69 -53 -130 -101 -136 -106 -6
-6 -33 -29 -59 -51 -103 -85 -145 -124 -315 -295 -300 -300 -533 -599 -749
-958 -109 -181 -253 -467 -312 -617 -11 -27 -24 -59 -29 -70 -47 -101 -184
-518 -205 -623 -1 -9 -8 -37 -15 -62 -50 -185 -108 -554 -127 -800 -16 -205
-8 -785 12 -885 2 -11 7 -47 11 -80 15 -137 28 -223 54 -355 12 -58 23 -116
26 -130 3 -14 19 -79 35 -145 17 -66 32 -124 33 -130 13 -63 122 -378 179
-520 71 -175 179 -403 241 -507 15 -26 24 -53 20 -59 -4 -7 -3 -9 3 -6 6 4 21
-15 34 -40 13 -26 30 -54 37 -62 8 -8 18 -24 23 -35 10 -23 15 -31 76 -124 24
-35 43 -67 43 -71 0 -4 9 -16 20 -26 11 -10 20 -24 20 -31 0 -7 4 -14 8 -16 4
-1 23 -25 42 -53 19 -27 37 -52 40 -55 3 -3 25 -32 49 -65 25 -33 47 -62 51
-65 26 -22 99 -124 93 -132 -3 -6 -2 -8 4 -5 5 3 32 -19 59 -50 27 -31 59 -67
72 -80 13 -12 21 -23 19 -23 -5 0 266 -269 299 -297 56 -48 149 -130 168 -148
12 -11 65 -53 118 -94 54 -40 95 -77 92 -82 -3 -5 2 -6 10 -3 9 4 18 -1 22
-10 3 -9 12 -16 20 -16 8 0 14 -3 14 -8 0 -4 8 -12 18 -17 46 -24 267 -178
265 -184 -1 -4 8 -8 20 -8 12 -1 23 -7 25 -13 2 -5 7 -10 12 -10 19 0 229
-128 222 -135 -4 -5 -2 -5 4 -2 7 4 42 -8 78 -26 54 -28 63 -36 53 -47 -10
-12 -9 -12 4 -2 18 13 53 6 43 -9 -3 -5 3 -6 12 -2 12 4 15 3 10 -5 -4 -8 -2
-10 7 -6 8 3 22 -2 31 -11 9 -9 16 -14 16 -11 0 3 30 -9 68 -25 67 -31 112
-51 122 -54 3 -1 18 -7 33 -13 16 -7 33 -12 38 -12 5 0 9 -5 9 -12 0 -6 3 -9
6 -6 3 4 36 -5 72 -19 37 -13 84 -29 104 -35 21 -6 36 -14 33 -18 -3 -5 3 -7
12 -6 10 2 45 -7 78 -19 33 -11 101 -32 152 -45 51 -13 90 -26 89 -29 -2 -3
14 -7 36 -8 24 -2 46 -10 55 -20 8 -10 12 -12 8 -5 -7 13 2 12 63 -2 38 -10
66 -16 96 -22 16 -2 33 -7 38 -10 5 -3 25 -7 46 -9 20 -2 75 -10 122 -18 47
-9 110 -18 140 -22 30 -4 63 -9 73 -11 10 -2 38 -4 63 -5 24 -2 44 -5 44 -8 0
-3 24 -7 53 -8 196 -7 227 -9 227 -18 0 -5 5 -3 10 5 5 8 10 11 10 5 0 -6 65
-10 175 -10 96 0 175 4 175 9 0 5 6 4 13 -2 8 -7 18 -7 27 -2 8 5 21 5 32 -1
10 -5 18 -6 18 -1 0 12 32 11 49 -2 12 -8 13 -8 7 2 -6 9 1 12 26 12 18 -1 53
1 78 4 25 3 72 8 105 11 33 3 74 7 90 10 108 14 134 17 172 24 27 5 46 4 54
-3 9 -8 10 -8 4 3 -6 11 -2 13 18 9 15 -3 24 -1 21 3 -3 5 5 9 18 8 13 0 39 4
58 9 19 5 47 8 62 8 14 -1 24 2 22 6 -5 8 10 10 64 11 12 1 22 5 22 9 0 13 44
9 60 -4 12 -11 12 -10 2 3 -10 14 -9 17 8 22 11 3 20 0 20 -6 0 -8 3 -8 8 1 5
7 21 15 35 18 15 2 38 9 52 14 14 5 29 9 33 8 4 -1 19 4 35 10 32 14 73 23
104 25 12 1 19 5 17 9 -3 4 1 8 8 9 24 1 42 7 93 27 28 11 54 20 58 20 9 0
188 68 235 88 18 8 37 12 44 8 6 -4 8 -3 5 3 -5 8 62 40 72 34 2 -2 7 2 10 7
3 6 15 12 26 14 11 1 22 6 25 9 10 12 305 154 317 153 7 -1 10 2 7 7 -3 5 10
16 30 24 19 8 38 19 41 25 4 6 11 8 16 5 5 -4 9 -1 9 5 0 6 5 8 10 5 6 -3 10
-1 10 4 0 6 6 11 14 11 8 0 16 4 18 8 6 15 115 72 123 64 5 -4 5 -2 1 5 -8 15
30 37 46 27 6 -4 8 -3 5 3 -9 14 40 46 55 37 7 -4 8 -3 4 4 -4 6 4 16 16 23
13 7 25 15 28 18 15 20 168 119 174 113 4 -4 6 0 4 8 -2 9 4 14 14 14 10 -1
16 1 13 5 -2 4 6 14 17 22 12 8 29 22 39 31 11 10 26 15 36 12 14 -4 15 -4 4
4 -10 8 -9 13 10 25 12 9 26 14 31 11 5 -3 7 -1 6 4 -3 8 81 91 93 92 3 0 27
20 52 44 25 25 48 42 51 39 3 -4 6 1 6 10 0 10 4 17 9 17 4 0 30 21 56 48 26
26 53 46 59 44 6 -2 8 0 3 4 -4 4 33 47 82 96 49 48 87 88 85 88 -2 0 13 19
35 41 21 23 45 49 52 58 8 9 26 31 40 48 15 18 30 29 33 26 3 -4 6 -1 6 5 0
18 32 52 43 45 6 -4 7 -1 2 7 -4 7 -3 15 2 19 5 3 19 21 32 39 12 18 27 29 33
26 7 -4 8 -2 4 4 -4 6 13 36 36 66 35 46 45 53 58 43 13 -11 13 -10 0 7 -13
16 -12 20 6 35 11 9 22 21 25 26 2 6 8 9 12 7 5 -1 6 1 3 6 -6 11 31 72 44 72
5 0 9 3 8 8 -5 14 64 112 75 105 6 -3 7 -1 3 5 -9 15 43 104 55 96 5 -3 6 -10
3 -16 -4 -7 -2 -8 5 -4 9 6 9 11 1 21 -9 11 -2 29 28 79 22 36 42 62 46 58 4
-3 4 1 0 11 -3 10 -1 17 6 17 6 0 8 5 5 10 -3 6 -1 10 5 10 6 0 9 4 6 9 -3 5
1 14 9 21 8 7 15 19 15 26 0 8 5 14 10 14 6 0 9 3 8 8 -3 13 31 84 39 79 5 -3
9 7 10 21 0 15 6 28 12 30 6 2 11 12 11 23 0 10 4 19 8 19 5 0 9 6 9 13 1 23
60 136 68 129 5 -4 5 -1 1 6 -4 7 2 33 13 57 12 25 21 50 21 55 0 6 3 9 8 7 4
-3 8 6 9 20 0 14 7 29 15 34 7 5 10 9 6 9 -11 0 23 90 34 90 5 0 7 4 4 8 -3 5
10 53 29 108 19 54 39 118 45 142 6 23 15 42 20 42 5 0 7 6 4 13 -3 8 2 34 10
58 9 24 16 52 16 62 0 9 3 17 8 17 4 0 8 12 9 26 0 15 7 30 15 35 9 6 9 9 1 9
-13 0 1 53 21 79 9 12 8 13 -2 7 -11 -7 -12 -4 -4 10 11 22 12 24 12 60 0 16
4 23 12 18 6 -4 8 -3 4 4 -5 8 18 170 39 272 2 8 4 28 4 43 1 18 5 26 12 21 8
-5 9 -2 2 11 -6 11 -7 32 -2 55 5 20 10 61 13 91 2 30 5 54 5 54 3 0 11 110
16 215 8 136 7 448 0 460 -3 5 0 10 7 10 10 0 10 2 0 9 -8 4 -14 12 -14 16 0
4 6 12 14 16 7 5 8 9 2 9 -6 0 -11 21 -13 48 -5 109 -11 179 -15 202 -3 15 -7
54 -10 88 -2 35 -6 65 -10 69 -3 3 0 13 7 21 9 13 9 14 0 8 -9 -5 -13 1 -14
21 -1 15 -2 42 -3 58 0 17 -4 32 -8 35 -4 3 -8 29 -10 58 -2 28 -5 52 -8 52
-3 0 -6 9 -7 20 -1 12 -9 54 -18 95 -9 41 -13 79 -9 86 4 8 3 9 -4 5 -8 -5
-12 2 -12 22 0 16 -3 32 -7 36 -4 3 -8 15 -10 26 -2 11 -4 28 -6 38 -1 9 -6
22 -10 28 -4 7 -8 28 -9 47 -2 19 -6 33 -9 31 -4 -2 -10 13 -14 34 -4 20 -20
77 -36 126 -16 48 -26 92 -23 97 3 5 1 9 -5 9 -5 0 -15 17 -21 38 -7 20 -38
105 -71 187 -33 83 -59 154 -58 159 0 5 -4 12 -9 15 -16 11 -63 122 -56 134 4
7 3 9 -1 4 -5 -4 -27 31 -49 77 -23 46 -47 91 -55 100 -7 8 -10 24 -7 33 4 10
4 14 0 10 -6 -5 -64 75 -64 89 0 2 -18 34 -40 70 -22 36 -40 70 -40 74 0 4 -7
13 -15 20 -9 7 -13 15 -11 17 2 3 -4 14 -14 26 -11 12 -19 26 -19 31 0 5 -3
12 -8 15 -17 11 -126 174 -126 187 0 7 -4 11 -7 9 -4 -3 -20 14 -36 38 -16 23
-31 44 -34 47 -22 21 -64 87 -62 95 2 5 0 7 -3 3 -4 -4 -26 16 -49 45 -22 29
-45 57 -51 63 -5 6 -35 40 -65 75 -75 87 -180 198 -267 282 -40 39 -69 75 -66
80 3 6 1 7 -4 4 -10 -6 -79 51 -170 139 -18 18 -33 30 -33 27 0 -3 -26 17 -57
44 -32 28 -98 80 -148 117 -49 37 -97 73 -105 79 -9 7 -36 26 -60 42 -25 17
-49 33 -55 38 -22 16 -147 97 -151 97 -2 0 -35 20 -74 45 -39 25 -72 45 -73
45 -2 0 -51 27 -110 59 -58 33 -115 62 -126 66 -12 3 -21 11 -21 17 0 6 -3 9
-6 5 -4 -3 -36 9 -73 27 -300 151 -726 296 -1106 377 -96 21 -307 58 -365 64
-19 2 -48 6 -65 9 -16 2 -68 8 -115 11 -47 4 -96 9 -110 12 -31 5 -636 14
-641 9z m41 -209 c0 -5 6 -5 13 0 18 15 348 14 366 0 9 -8 12 -8 8 -1 -4 7 6
10 27 10 19 -1 32 -4 29 -8 -2 -5 0 -8 6 -8 5 0 13 5 16 10 4 6 10 8 15 5 7
-4 48 -8 190 -19 129 -10 199 -20 195 -27 -3 -4 0 -11 6 -15 8 -5 9 -3 4 6 -7
12 37 10 110 -4 11 -2 46 -7 77 -11 32 -4 55 -11 53 -15 -3 -5 5 -6 17 -2 15
4 19 2 13 -7 -6 -10 -3 -11 11 -3 23 11 47 5 37 -11 -4 -7 1 -6 10 2 9 7 17
10 17 5 0 -5 19 -10 42 -12 22 -1 46 -6 52 -10 11 -7 21 -9 66 -17 14 -2 41
-9 60 -15 19 -6 46 -13 60 -16 14 -3 66 -18 115 -35 50 -16 96 -29 103 -29 7
0 11 -4 8 -9 -3 -5 0 -9 7 -8 32 1 48 -4 42 -13 -3 -6 1 -7 9 -4 17 7 107 -24
118 -40 4 -6 8 -8 8 -4 0 8 54 -12 141 -50 24 -11 58 -25 74 -32 17 -8 32 -14
35 -15 39 -11 168 -81 163 -88 -3 -6 -1 -7 5 -3 13 8 192 -81 192 -95 0 -4 7
-6 15 -3 8 4 15 2 15 -4 0 -6 14 -15 31 -21 19 -7 28 -15 23 -22 -5 -8 -3 -9
5 -5 7 5 35 -7 66 -28 30 -20 59 -36 65 -36 5 0 10 -4 10 -10 0 -5 4 -10 9
-10 13 0 195 -121 199 -132 2 -4 10 -8 18 -8 8 0 17 -7 20 -15 4 -8 10 -15 16
-15 14 0 230 -169 314 -245 6 -5 32 -28 57 -49 25 -22 43 -44 40 -49 -3 -6 -2
-7 4 -4 10 6 183 -159 312 -298 82 -90 242 -279 245 -291 0 -4 16 -23 33 -42
18 -20 31 -38 28 -40 -2 -2 4 -12 15 -21 22 -19 164 -229 241 -356 30 -49 59
-97 64 -106 32 -52 198 -389 234 -474 23 -55 46 -109 50 -120 22 -50 72 -186
92 -250 12 -38 26 -79 30 -90 4 -11 17 -54 29 -95 11 -41 24 -88 30 -105 9
-29 44 -176 54 -225 2 -14 11 -59 20 -100 8 -41 18 -93 21 -115 3 -23 7 -50 9
-60 4 -23 24 -180 31 -245 30 -292 26 -825 -9 -1055 -3 -16 -8 -57 -11 -90 -4
-33 -8 -67 -10 -75 -3 -8 -7 -33 -10 -55 -5 -32 -55 -283 -70 -345 -36 -158
-164 -549 -225 -685 -10 -22 -30 -69 -45 -105 -68 -163 -193 -398 -318 -600
-644 -1034 -1668 -1788 -2844 -2095 -121 -32 -278 -66 -363 -80 -19 -3 -46 -7
-60 -10 -41 -8 -83 -14 -130 -20 -108 -13 -136 -17 -159 -20 -114 -19 -666
-26 -851 -12 -325 25 -628 79 -930 163 -137 38 -185 53 -215 65 -11 4 -49 18
-85 30 -56 18 -230 87 -310 122 -14 5 -27 11 -30 12 -21 5 -260 123 -355 175
-106 57 -248 142 -329 197 -43 29 -82 53 -87 53 -5 0 -9 3 -9 8 0 4 -18 18
-40 32 -22 13 -40 28 -40 32 0 4 -5 8 -11 8 -6 0 -30 15 -53 32 -22 18 -45 36
-51 40 -59 44 -93 77 -87 83 4 5 2 5 -4 2 -6 -3 -20 1 -30 11 -11 9 -64 56
-119 103 -176 151 -474 458 -467 481 1 5 -2 7 -7 4 -5 -3 -16 4 -24 17 -9 12
-26 34 -39 49 -14 15 -33 39 -44 54 -10 14 -25 32 -31 39 -23 24 -143 184
-143 190 0 4 -7 13 -15 22 -8 8 -12 20 -8 26 3 7 2 9 -2 4 -10 -9 -46 43 -39
55 3 5 0 7 -8 6 -7 -2 -12 5 -12 15 1 10 -1 16 -4 13 -5 -5 -37 33 -37 44 0 3
-10 19 -21 35 -26 36 -114 185 -114 192 0 2 -7 12 -16 20 -8 9 -13 24 -11 34
3 10 0 17 -7 16 -6 -1 -10 4 -8 11 1 6 -2 12 -7 12 -8 0 -31 46 -34 67 -1 4
-8 16 -17 26 -8 10 -15 21 -15 25 -1 4 -25 57 -55 117 -29 61 -53 116 -53 123
0 6 -3 12 -7 12 -7 0 -35 80 -32 93 1 4 -2 7 -8 7 -5 0 -10 7 -10 15 0 8 -4
23 -10 33 -10 18 -70 175 -74 195 -2 7 -6 21 -10 32 -16 43 -49 153 -50 170
-1 6 -4 12 -8 15 -4 3 -9 21 -10 40 -2 19 -7 38 -11 41 -5 4 -10 24 -10 47 -1
22 -5 38 -9 35 -7 -4 -10 8 -12 55 -1 9 -4 19 -8 22 -7 6 -18 59 -22 106 -1
17 -6 36 -10 43 -4 6 -5 18 -2 26 2 7 1 15 -4 17 -4 2 -11 26 -15 53 -4 28
-10 64 -12 80 -3 17 -6 46 -7 66 -1 19 -5 40 -9 46 -3 5 -7 40 -9 76 -2 37 -6
67 -9 67 -4 0 -7 10 -6 23 1 44 -13 230 -19 238 -3 5 1 9 8 9 8 0 9 3 3 8 -15
10 -16 84 -1 75 8 -5 8 -3 0 8 -17 20 -17 279 -1 279 7 0 6 4 -3 10 -13 9 -13
11 0 20 8 5 10 10 4 10 -8 0 -11 50 -4 70 1 3 1 18 0 33 -1 15 4 35 12 44 9
12 9 15 1 9 -9 -5 -13 0 -13 14 0 14 4 19 13 14 9 -5 9 -4 1 5 -7 7 -9 27 -5
49 4 20 6 49 6 65 -1 15 2 27 5 27 3 0 6 24 7 53 1 28 4 63 7 77 2 14 5 38 5
54 1 26 3 27 19 15 15 -13 16 -12 4 2 -12 16 -14 89 -2 89 3 0 6 10 7 23 1 69
4 88 11 83 5 -3 6 9 4 26 -3 17 -1 28 4 25 5 -3 10 9 10 26 1 18 4 43 8 57 11
51 28 115 34 130 7 19 9 30 10 58 1 15 6 21 14 16 7 -4 8 -3 4 5 -10 15 3 73
15 66 5 -4 6 0 3 8 -3 8 10 58 27 113 18 54 32 102 31 107 -1 4 2 7 6 7 4 0 8
9 9 19 1 11 13 48 27 83 14 36 26 70 26 77 0 7 3 10 8 8 4 -3 8 6 9 20 0 14
11 39 23 56 13 16 18 27 11 23 -8 -5 -8 -1 0 18 7 14 16 23 22 19 6 -3 7 -1 4
4 -8 13 12 73 24 73 5 0 8 3 7 8 -6 16 34 102 44 96 7 -4 8 -2 4 4 -8 14 28
84 39 74 5 -4 5 -2 2 5 -10 16 3 44 16 36 6 -3 7 -1 3 5 -4 6 7 39 24 72 24
48 35 60 48 55 13 -5 14 -3 6 5 -14 14 2 52 32 76 11 9 13 12 6 9 -11 -6 -12
-3 -2 14 6 12 15 19 20 16 6 -3 7 0 4 8 -3 8 2 22 11 30 9 9 14 18 13 19 -2 2
28 52 66 111 51 80 72 105 78 95 7 -9 8 -8 4 5 -5 16 15 52 59 104 6 6 28 37
49 67 22 31 43 56 48 56 4 0 8 6 8 14 0 8 10 22 22 30 12 9 18 16 13 16 -4 0
2 11 15 25 12 13 27 22 33 18 6 -4 7 -1 2 7 -4 7 -4 15 1 19 5 3 26 27 47 54
21 26 43 44 49 41 7 -4 8 -2 4 4 -8 13 73 104 86 96 5 -3 7 -1 6 3 -4 12 58
83 72 83 6 0 9 4 6 8 -7 12 33 44 46 36 7 -4 8 -3 4 4 -4 6 13 31 39 57 45 44
63 57 49 33 -4 -7 -3 -8 5 -4 6 4 9 11 6 16 -7 12 106 111 119 103 6 -3 8 -2
3 2 -7 9 30 55 45 55 4 0 26 18 48 40 22 22 43 40 48 40 4 0 27 18 51 40 41
37 54 44 74 41 4 0 6 3 5 8 -4 13 91 83 102 76 6 -4 9 -3 8 2 -2 4 -1 8 2 8 3
0 20 15 39 33 19 17 38 32 43 32 5 0 18 9 30 20 12 10 25 17 30 14 4 -3 8 0 8
5 0 6 24 25 52 41 29 17 70 42 92 56 21 14 35 20 31 12 -3 -7 0 -6 7 3 14 18
210 129 226 129 5 0 15 7 22 15 6 8 15 14 18 13 4 -1 26 8 50 20 23 12 42 20
42 16 0 -3 7 2 16 10 8 9 20 14 25 11 5 -4 9 -1 9 5 0 6 5 8 10 5 6 -3 10 -2
10 4 0 6 12 14 28 17 15 4 54 19 87 34 123 56 135 61 148 54 6 -4 9 -3 4 1
-12 14 105 55 121 42 9 -7 11 -6 7 5 -5 12 4 18 32 24 21 4 44 8 50 7 7 0 10
3 7 8 -3 5 3 10 13 11 27 2 36 4 65 16 31 13 124 40 157 47 11 2 26 7 33 11 7
5 8 3 3 -7 -7 -11 -6 -11 9 1 19 15 38 21 74 24 12 0 22 4 22 7 0 4 21 10 48
14 26 5 52 10 57 11 6 2 20 5 33 8 13 3 31 7 40 10 9 3 37 8 62 11 73 10 104
16 109 20 2 3 11 -1 19 -8 13 -9 14 -9 8 1 -5 8 0 12 16 13 45 3 65 6 77 13 6
4 11 1 11 -6 0 -10 2 -10 8 0 5 7 37 14 78 17 38 2 69 5 69 6 0 4 53 8 143 12
51 2 94 6 97 8 8 9 45 5 45 -4z"/>
<path d="M1970 8661 c0 -6 4 -13 10 -16 6 -3 7 1 4 9 -7 18 -14 21 -14 7z"/>
<path d="M1830 8541 c0 -6 4 -13 10 -16 6 -3 7 1 4 9 -7 18 -14 21 -14 7z"/>
<path d="M1900 6142 c-7 -3 -10 -443 -10 -1293 l0 -1289 68 -1 c322 -4 496 -1
500 10 2 6 9 8 14 5 7 -5 8 -2 2 7 -12 19 -13 839 0 832 5 -4 6 -1 0 8 -11 18
-14 140 -3 134 4 -3 11 -1 14 5 4 6 1 9 -6 8 -6 -2 -14 2 -16 9 -3 10 297 12
1371 12 756 0 1379 2 1384 5 5 3 9 48 9 99 0 52 3 99 7 106 4 6 4 11 -1 11 -6
0 -9 580 -3 725 l1 30 21 -40 c11 -22 24 -42 27 -45 9 -7 51 -68 51 -74 0 -4
146 -234 255 -401 18 -27 48 -75 67 -105 103 -162 133 -209 160 -247 16 -24
26 -43 21 -43 -4 0 -3 -4 3 -8 11 -8 74 -97 74 -106 0 -3 17 -31 39 -63 53
-79 135 -207 211 -328 34 -55 75 -119 92 -142 17 -25 26 -48 22 -55 -4 -7 -3
-10 1 -5 7 5 115 -144 115 -158 0 -2 13 -23 29 -47 33 -48 70 -84 106 -100 14
-6 23 -14 20 -17 -2 -4 4 -7 13 -7 9 -1 33 -5 52 -9 80 -17 203 9 251 54 12
11 27 18 32 14 6 -3 7 -1 4 4 -4 6 2 18 13 28 11 10 20 24 20 32 0 7 7 16 15
19 8 4 13 10 10 14 -2 4 6 19 20 34 13 14 22 26 19 26 -3 0 2 10 10 22 16 23
22 63 8 55 -14 -10 -60 39 -112 118 -29 44 -65 99 -81 122 -16 23 -29 44 -29
48 0 3 -5 11 -10 18 -33 38 -90 139 -84 149 4 6 3 8 -3 5 -13 -8 -75 91 -67
105 4 6 3 8 -3 5 -10 -6 -96 119 -96 140 0 7 -2 11 -5 8 -5 -5 -172 251 -172
265 0 4 -4 10 -8 12 -12 5 -95 141 -95 155 0 7 -3 10 -7 8 -3 -2 -15 10 -25
28 -10 18 -43 69 -72 114 -31 47 -51 88 -47 95 4 6 3 8 -3 5 -11 -7 -116 148
-116 170 0 7 -3 10 -7 8 -6 -4 -72 99 -70 111 1 3 -6 11 -16 18 -11 8 -14 18
-9 27 5 8 4 11 0 6 -11 -9 -108 141 -99 154 3 5 1 8 -6 7 -6 -2 -18 11 -28 27
-9 17 -19 32 -22 35 -24 24 -79 123 -74 133 4 7 4 9 -1 5 -5 -5 -36 34 -69 84
l-61 92 -410 1 c-225 0 -420 -1 -432 -3 l-23 -4 0 -502 c1 -275 0 -507 0 -513
0 -10 -225 -13 -1092 -13 l-1093 0 -1 193 c0 126 3 195 10 199 7 5 7 8 1 8 -6
0 -11 37 -11 95 0 80 2 95 15 96 14 0 14 1 1 7 -12 6 -15 32 -16 137 -1 84 3
133 10 137 7 5 7 8 0 8 -6 0 -11 23 -11 53 -1 28 -1 63 -2 77 l-1 25 -275 0
c-151 0 -280 -1 -285 -3z"/>
<path d="M7845 6142 c-14 -2 -70 -82 -183 -260 -89 -141 -227 -358 -306 -482
-80 -124 -206 -322 -282 -440 -76 -118 -160 -250 -187 -292 l-49 -76 27 -44
c14 -24 31 -52 38 -63 7 -11 14 -22 17 -25 3 -3 41 -61 84 -130 136 -214 159
-250 165 -250 4 0 26 31 50 69 31 50 48 68 60 64 12 -4 13 -3 2 5 -10 8 -4 23
31 76 25 36 48 63 53 58 5 -4 5 -1 1 6 -7 11 28 73 46 80 5 2 6 7 3 12 -2 4 6
19 20 34 13 15 25 29 25 31 0 17 33 65 41 60 5 -4 9 -3 8 2 -4 21 2 34 13 27
6 -4 8 -3 4 4 -6 11 137 244 155 250 5 2 7 8 4 12 -3 5 3 18 14 29 11 11 17
22 13 25 -3 3 0 6 6 6 7 0 12 4 12 10 0 9 107 180 130 207 5 7 10 17 10 23 0
5 5 10 10 10 6 0 10 6 10 13 0 8 9 22 20 32 10 9 18 22 17 29 -1 6 3 10 10 9
7 -2 10 4 7 12 -4 8 -1 15 5 15 6 0 11 7 11 16 0 11 5 14 18 9 13 -5 14 -3 5
6 -9 9 -3 23 25 63 20 28 40 53 44 54 5 2 6 7 3 11 -6 11 40 72 49 64 4 -4 4
0 0 10 -3 9 -2 17 3 17 5 0 17 16 26 35 9 19 22 35 29 35 6 0 8 3 5 6 -9 10
12 46 23 39 6 -4 7 1 3 11 -5 14 -3 16 12 11 15 -6 16 -5 6 7 -7 8 -8 16 -4
18 9 3 103 144 103 153 0 16 128 194 135 187 4 -4 5 -2 2 5 -10 16 3 44 17 36
6 -3 8 -2 3 2 -4 5 0 19 8 32 12 17 12 23 3 24 -54 2 -617 3 -633 1z"/>
<path d="M8275 5760 c-3 -5 -1 -10 4 -10 6 0 11 5 11 10 0 6 -2 10 -4 10 -3 0
-8 -4 -11 -10z"/>
<path d="M4655 4329 c-2 -3 -4 -177 -4 -387 l0 -382 22 -1 c43 -1 513 -1 542
1 17 1 26 3 20 6 -11 4 -12 241 -2 268 4 9 3 16 -2 16 -7 0 -7 27 0 67 1 4 0
10 -1 13 -7 20 -3 311 5 314 6 3 6 5 -1 5 -7 1 -9 16 -7 41 2 22 0 41 -4 41
-29 5 -566 3 -568 -2z"/>
<path d="M9570 2959 c0 -5 5 -7 10 -4 6 3 10 8 10 11 0 2 -4 4 -10 4 -5 0 -10
-5 -10 -11z"/>
<path d="M7856 902 c-3 -5 1 -9 9 -9 8 0 12 4 9 9 -3 4 -7 8 -9 8 -2 0 -6 -4
-9 -8z"/>
</g>
</svg>
